<svg width="32" height="32" viewBox="0 0 200 200" xmlns="http://www.w3.org/2000/svg">
  <rect width="200" height="200" rx="36" fill="#22478B"/>
  <g fill="#FF9B00">
    <g transform="translate(38, 40) scale(0.78)"><path d="M 0,130 L 24,130 Q 30,130 31.35,124.15 L 60,0 L 36,0 Q 30,0 28.65,5.85 Z"/></g>
    <g transform="translate(78, 33) scale(0.78)"><path d="M 0,130 L 24,130 Q 30,130 31.35,124.15 L 60,0 L 36,0 Q 30,0 28.65,5.85 Z"/></g>
    <g transform="translate(118, 26) scale(0.78)"><path d="M 0,130 L 24,130 Q 30,130 31.35,124.15 L 60,0 L 36,0 Q 30,0 28.65,5.85 Z"/></g>
  </g>
</svg>
