<svg xmlns="http://www.w3.org/2000/svg" width="298.23" height="41.66" viewBox="0 0 298.23 41.66">
    <g data-name="LOGO AFKLM Group blanc">
        <g data-name="Groupe 49">
            <path data-name="Tracé 34" d="M191.041 81.928v7.838h-1.7v-2.313c-1.069 1.244-2.8 2.576-6.376 2.576-6.158 0-9.062-3.69-9.062-8.3 0-5.459 3.692-8.361 9.04-8.361 3.777 0 6.682 1.7 7.86 4.366l-1.615.851c-1.246-2.838-4.171-3.6-6.311-3.6-4.453 0-7.007 2.468-7.007 6.987 0 3.647 2.466 6.354 7.184 6.354 2.881 0 5.983-1.4 6.244-4.694h-6.441v-1.7z" transform="translate(28.661 -48.369)" style="fill:#333333"/>
            <path data-name="Tracé 35" d="M187.418 73.623h9.17c2.534 0 6.246.546 6.246 4.433 0 3.319-3.079 4.28-5 4.368l5.24 7.074h-2.38l-5.11-7.03h-6.244V89.5h-1.922zm1.922 7.14h6.812c2.773 0 4.847-.393 4.847-2.729 0-2.315-2.075-2.708-4.847-2.708h-6.812z" transform="translate(36.058 -48.23)" style="fill:#333333"/>
            <path data-name="Tracé 36" d="M208.291 73.369c5.394 0 9.3 3.144 9.3 8.428 0 5.633-4.717 8.233-9.3 8.233s-9.3-2.6-9.3-8.233c0-5.284 3.91-8.428 9.3-8.428m0 14.957c3.865 0 7.337-2.053 7.337-6.879 0-3.537-2.729-6.463-7.337-6.463s-7.337 2.926-7.337 6.463c0 4.826 3.427 6.879 7.337 6.879" transform="translate(42.389 -48.369)" style="fill:#333333"/>
            <path data-name="Tracé 37" d="M229.094 82.968c0 5.743-4.476 6.922-8.166 6.922s-8.166-1.179-8.166-6.922v-9.345h1.92v9.345c0 3.647 2.338 5.307 6.246 5.307s6.245-1.66 6.245-5.307v-9.345h1.922z" transform="translate(49.926 -48.23)" style="fill:#333333"/>
            <path data-name="Tracé 38" d="M225.757 73.622h9.3c3.209 0 6.135.917 6.135 4.543 0 3.647-2.926 4.564-6.135 4.564h-7.38V89.5h-1.922zm1.922 7.4h6.879c3.187 0 4.8-.678 4.8-2.839 0-2.183-1.615-2.861-4.8-2.861h-6.879z" transform="translate(57.037 -48.231)" style="fill:#333333"/>
            <path data-name="Tracé 39" d="M244.862 57.392v18.687h-5.821V63.912l-8.095 8.516-8.061-8.4v12.051h-4.8V57.372h6.13l7.247 7.9 7.3-7.885z" transform="translate(52.84 -57.122)" style="fill:#333333"/>
            <path data-name="Tracé 40" d="M208.351 57.385h-5.824v18.681h19.527v-4.138h-13.7z" transform="translate(44.326 -57.115)" style="fill:#333333"/>
        </g>
        <g data-name="Groupe 50">
            <path data-name="Tracé 41" d="M207.816 57.385H200.1l-9.938 7.338v-7.338h-5.83v18.687h5.83v-7.791l9.245 7.792h9.025l-12.223-10.217z" transform="translate(34.371 -57.116)" style="fill:#333333"/>
            <path data-name="Tracé 42" d="M254.272 60.807V57.48h-18.08v18.683h18.05v-3.336h-13.1v-4.535h12.922v-3.326h-12.928v-4.159zm-39.214 6c0-4.323 4.852-5.834 8.613-5.834a19.377 19.377 0 0 1 8.268 1.977v-4.221a28.3 28.3 0 0 0-8.565-1.518c-7.3 0-14.138 3.487-14.138 9.5 0 5.782 6.668 9.733 13.2 9.733a23.631 23.631 0 0 0 9.713-1.923V70.45a19.318 19.318 0 0 1-8.824 2.137c-4.238 0-8.265-2.253-8.265-5.783m-13.3 2.322-13.968-11.65h-3.758v18.696h4.2V64.347l13.956 11.825h3.769V57.48h-4.2zm-91.925 7.046h4.946V69.83h13.027v-3.323h-13.03v-5.693h13.352V57.48h-18.3zm-37.795 0h4.945V57.48h-4.948zM58.049 57.48c3.987 6.136 7.849 12.35 11.51 18.692h-5.821l-2.527-4.244H50.057l-2.4 4.244h-4.68c3.537-6.291 7.139-12.542 10.913-18.692zM59.1 68.6l-3.7-6.22-3.542 6.22zm111.272-11.12c3.99 6.136 7.849 12.35 11.511 18.692h-5.822l-2.525-4.244h-11.158l-2.4 4.244H155.3c3.532-6.291 7.137-12.542 10.911-18.692zm1.057 11.12-3.707-6.217-3.543 6.217zm-24.085.288 6.786 7.287h-6.565l-5.932-6.475H137v6.47h-4.949V57.479H145.7c4.055 0 7.408 2.042 7.408 5.732 0 2.684-2.579 4.878-5.766 5.674m.142-5.418c0-1.744-1.776-2.652-3.718-2.652H137v5.554h5.674c3.037 0 4.812-1.151 4.812-2.9m-48.734 5.416 6.786 7.287h-6.563L93.04 69.7h-4.631v6.47h-4.951V57.479h13.654c4.052 0 7.406 2.042 7.406 5.732 0 2.684-2.584 4.878-5.766 5.674m.142-5.418c0-1.744-1.776-2.652-3.718-2.652h-6.767v5.554h5.675c3.034 0 4.81-1.151 4.81-2.9" transform="translate(-42.979 -57.211)" style="fill:#333333"/>
        </g>
    </g>
</svg>
