<svg aria-hidden="true" xmlns="http://www.w3.org/2000/svg" style="display:inline-block;fill:#1d1d1d;height:75px;line-height:1;opacity:1;transition:200ms;vertical-align:middle;width:200px" viewBox="0 0 1000 75"><path d="M230.79 74.0495L212.327 0.00115967H194.488L216.572 74.4492H230.664L230.79 74.0495ZM254.834 0.00115967H240.021L227.194 39.3551L233.622 65.1461L247.065 22.9249H247.279L263.68 74.4492H278.298V74.4308L254.834 0.00115967ZM300.064 0.00115967H283.45L272.946 41.1361L280.78 65.972L300.064 0.00115967Z" fill="#1d1d1d"></path><path d="M100.335 0.00115967H83.9375V74.4481H100.335V0.00115967ZM130.724 59.308H105.3V74.4515H130.727L130.724 59.308Z" fill="#1d1d1d"></path><path d="M179.066 35.5434V35.3349C182.92 34.1415 186.022 32.1609 188.372 29.3931C190.722 26.6254 191.896 23.1377 191.893 18.93C191.893 14.8644 191.086 11.6047 189.474 9.15109C187.897 6.73078 185.724 4.75651 183.164 3.41785C180.57 2.05317 177.643 1.14275 174.383 0.686577C171.161 0.232439 167.912 0.00379689 164.658 0.00231934H136.896V74.4504H153.301V13.8821H164.446C165.752 13.8859 167.055 14.0089 168.338 14.2496C169.583 14.4666 170.788 14.875 171.909 15.4603C172.955 16.0169 173.841 16.8313 174.485 17.8264C175.151 18.844 175.485 20.1234 175.487 21.6647C175.487 23.1346 175.189 24.3956 174.593 25.4477C174.022 26.4708 173.21 27.3383 172.226 27.9739C171.21 28.6188 170.089 29.0808 168.914 29.339C167.689 29.6197 166.437 29.7611 165.181 29.7606H158.259V43.6393H165.708C167.15 43.6468 168.59 43.753 170.017 43.9572C171.5 44.1486 172.95 44.5359 174.33 45.1092C175.626 45.6436 176.766 46.4957 177.646 47.587C178.521 48.6721 178.96 50.0929 178.961 51.8492C178.961 53.4619 178.628 54.8285 177.962 55.949C177.319 57.0419 176.439 57.9765 175.387 58.6837C174.316 59.3925 173.12 59.8913 171.863 60.1536C170.602 60.4307 169.316 60.572 168.026 60.5752H158.264V74.4504H167.394C170.733 74.446 174.063 74.0931 177.329 73.3975C180.658 72.6987 183.656 71.5421 186.322 69.9279C188.957 68.3417 191.187 66.1644 192.836 63.568C194.52 60.9377 195.362 57.6604 195.362 53.7361C195.377 51.4437 194.985 49.1669 194.206 47.011C193.475 44.9688 192.349 43.0902 190.894 41.4817C189.428 39.8812 187.682 38.5624 185.741 37.5904C183.745 36.5744 181.518 35.8909 179.06 35.5399" fill="#1d1d1d"></path><path d="M428.582 36.0168C431.317 32.3375 432.684 27.8683 432.683 22.6093C432.683 18.2641 431.93 14.6359 430.424 11.7245C428.918 8.81316 426.883 6.50005 424.319 4.78519C421.76 3.07032 418.78 1.84388 415.38 1.10587C411.837 0.354943 408.225 -0.0157802 404.604 -5.33822e-06H375.797V74.4515H392.198V13.8833H402.925C404.438 13.8856 405.948 13.9903 407.447 14.1966C408.871 14.3731 410.256 14.7821 411.547 15.4073C412.734 15.9977 413.748 16.8845 414.491 17.9819C415.259 19.1031 415.643 20.6103 415.643 22.5033C415.643 24.5353 415.206 26.1123 414.332 27.2343C413.472 28.3442 412.326 29.1989 411.016 29.7064C409.586 30.2527 408.078 30.5726 406.549 30.6545C404.902 30.7582 403.342 30.8096 401.869 30.8088H397.155V44.6933H400.302L415.864 74.4515H435.526L416.595 43.0103C421.853 42.0303 425.848 39.6992 428.582 36.0168Z" fill="#1d1d1d"></path><path d="M511.337 37.436C511.337 10.2005 491.253 0.003479 467.277 0.003479H442.672V74.4515H459.107V59.3069H459.078V15.1447H468.749C482.631 15.1447 494.3 21.9792 494.3 36.5974C494.3 53.5241 482.839 59.3069 467.591 59.3069H464.004V74.4515H469.485C491.672 74.4515 511.335 61.5163 511.335 37.436" fill="#1d1d1d"></path><path d="M59.6245 74.4504H78.1294L45.7447 0.003479H32.1793L30.9825 2.767L38.4598 21.7407L38.4886 21.6647L47.6362 44.797H34.7332L29.4043 58.6756H53.2104L59.6245 74.4504Z" fill="#1d1d1d"></path><path d="M35.7933 28.3563L28.2262 9.14417L0 74.4504H18.0879L18.574 73.2109L29.4806 44.7969H29.4449L31.5449 39.4208L35.7933 28.3563Z" fill="#1d1d1d"></path><path d="M351.768 74.4504H370.274L337.889 0.003479H324.324L323.127 2.767L330.603 21.7407L330.632 21.6647L339.781 44.797H326.878L321.549 58.6756H345.355L351.768 74.4504Z" fill="#1d1d1d"></path><path d="M327.938 28.3563L320.371 9.14417L292.145 74.4504H310.232L310.719 73.2109L321.625 44.7969H321.589L323.689 39.4208L327.938 28.3563Z" fill="#1d1d1d"></path><path d="M553.355 38.0719L578.296 0.00115967H558.843L544.936 23.1876L553.355 38.0719Z" fill="#1d1d1d"></path><path d="M550.333 42.6854L526.185 0.00231934H505.953L533.924 42.6958V74.4504H550.325V42.6958L550.333 42.6854Z" fill="#1d1d1d"></path><path d="M612.137 0.224609V74.0748L637.531 74.1036V23.2486C637.531 23.2486 656.001 18.6949 656.001 37.1641C656.001 37.1641 656.685 51.3964 642.151 51.0543V73.667H644.46C644.46 73.667 681.399 78.6826 681.399 37.1238C681.399 37.1238 681.399 0.224609 644.46 0.224609H612.137Z" fill="#1d1d1d"></path><path d="M716.028 0.184326H699.868C699.868 0.184326 691.53 0.44121 690.634 9.41949L681.398 74.0956H711.409L713.077 27.8887C713.077 27.8887 712.756 23.274 716.028 23.274V0.184326Z" fill="#1d1d1d"></path><path d="M746.04 9.54735C746.04 9.54735 744.502 0.183167 736.806 0.183167H720.645V23.2716C720.645 23.2716 723.722 22.7602 723.593 27.5707L724.169 41.6763L716.984 41.8065L716.639 60.2215H724.933L725.266 74.0645H755.28L746.04 9.54735Z" fill="#1d1d1d"></path><path d="M759.893 74.1036V0.225769H792.216L806.066 32.546V74.1036H796.832L785.287 38.0626V74.1036H759.893Z" fill="#1d1d1d"></path><path d="M926.119 74.1036V0.225769H953.823L967.678 27.9301V74.1036L951.644 41.7811V74.1036H926.119Z" fill="#1d1d1d"></path><path d="M856.859 74.1036V0.225769H824.535L810.686 32.546V74.1036H819.92L831.464 38.0626V74.1036H856.859Z" fill="#1d1d1d"></path><path d="M919.443 0.224609H863.734V21.0034H919.443V0.224609Z" fill="#1d1d1d"></path><path d="M919.421 26.792H863.734V47.6031H919.421V26.792Z" fill="#1d1d1d"></path><path d="M919.424 53.3271H863.734V74.1059H919.424V53.3271Z" fill="#1d1d1d"></path><path d="M999.999 0.184326H972.295V74.1025H999.999V0.184326Z" fill="#1d1d1d"></path></svg>