<svg viewBox="0 0 120 32" xmlns="http://www.w3.org/2000/svg"><g fill="#303030"><path d="m27.5 7.2a2.1 2.1 0 1 1 4.2 0 2.05061 2.05061 0 0 1 -2.1 2.1 2.25785 2.25785 0 0 1 -2.1-2.1z"/><path d="m32.8 8.3a1.6 1.6 0 1 1 1.6 1.6 1.64458 1.64458 0 0 1 -1.6-1.6z"/><path d="m27 4.4-2.1-2.1 2.1-1.7 2.1 1.7z"/><path d="m26.4 7.2a2.1 2.1 0 1 0 -4.2 0 2.05061 2.05061 0 0 0 2.1 2.1 2.17982 2.17982 0 0 0 2.1-2.1z"/><path d="m21.2 8.3a1.6 1.6 0 1 0 -1.6 1.6 1.64458 1.64458 0 0 0 1.6-1.6z"/><path d="m19.7 11.6a36.26066 36.26066 0 0 1 7.3-.8 35.48734 35.48734 0 0 1 7.3.8v2a44.70833 44.70833 0 0 0 -14.6 0z"/><path d="m2.9 24.6h1.5c1.6 0 2.9.7 2.9 2.4 0 1.6-1.2 2.5-2.9 2.5h-1.5zm1.9 6.7c3.5 0 5.6-1.8 5.6-4.3a3.82807 3.82807 0 0 0 -3.8-3.6 3.64759 3.64759 0 0 0 2.9-3.6c0-2-1.7-3.1-4.2-3.1h-5.3v14.6zm-1.9-12.8h1.5c1.3 0 2.2.6 2.2 1.9a2.72061 2.72061 0 0 1 -2.7 2.5h-1z"/><path d="m18.9 29.4c-3.1 0-4.2-2.9-4.2-5.7 0-2.7 1.2-5.3 4.2-5.3 2.9 0 4.1 2.6 4.1 5.3.1 2.9-1 5.7-4.1 5.7m0 2.1c4.5 0 7.3-3.4 7.3-7.8a7.08892 7.08892 0 0 0 -7-7.3h-.3a7.16988 7.16988 0 0 0 -7.3 7.1v.3c0 4.3 2.8 7.7 7.3 7.7"/><path d="m35 29.4c-3.1 0-4.2-2.9-4.2-5.7 0-2.7 1.2-5.3 4.2-5.3 2.9 0 4.2 2.6 4.2 5.3 0 2.9-1.1 5.7-4.2 5.7m0 2.1c4.5 0 7.3-3.4 7.3-7.8a7.25017 7.25017 0 1 0 -14.5-.1v.1c0 4.4 2.8 7.8 7.2 7.8"/><path d="m57.1 31.3h-2.1c-2.8-3.4-5.6-6.7-8.4-10.5v10.5h-2.4v-14.6h2.1c2.8 3.3 5.6 6.7 8.4 10.4v-10.4h2.4z"/></g><path d="m72.7 18.6h-5.8v4h4.8v2h-4.8v4.7h5.8v2h-8.8v-14.6h8.8z" fill="#008c3c"/><path d="m77.8 18.6h2.2a4.51957 4.51957 0 0 1 4.9 4.9c0 4.1-1.8 5.8-5.2 5.8h-1.8zm-2.9-1.9v14.6h4.8c5.2 0 8.3-2.9 8.3-7.7 0-3.5-2.1-6.9-8-6.9z" fill="#008c3c"/><path d="m92.6 25.3a60.173 60.173 0 0 0 2-6c.7 2.3 1.3 4 1.9 6zm1.1-8.8-6 14.6h2.5l1.5-4h5.3l1.4 4h3.3l-5.5-14.6z" fill="#008c3c"/><path d="m119.9 31.3h-2.9v-11.4c-1.6 4.1-3.3 7.7-5 11.4h-1.6c-1.6-3.7-3.2-7.3-4.7-11.4v11.4h-2.4v-14.6h3.6c1.5 3.6 3.9 9.3 4.5 11.2.7-2 3.3-7.6 5-11.2h3.4z" fill="#008c3c"/></svg>