<svg width="115" height="37" viewBox="0 0 115 37" fill="none" xmlns="http://www.w3.org/2000/svg"><path d="M17.201 36.584.072 19.21h17.13v17.373Z" fill="#FFF719"/><path d="M17.201 36.584H.072V19.21l17.13 17.373Z" fill="#002663"/><path d="M36.771 21.048c.532.735.797 1.618.797 2.647 0 1.053-.265 1.91-.797 2.548-.29.367-.725.686-1.304.98.87.319 1.522.833 1.98 1.52.436.71.677 1.543.677 2.548 0 1.029-.266 1.96-.773 2.768a4.68 4.68 0 0 1-1.208 1.373 5.016 5.016 0 0 1-1.933.882c-.749.147-1.546.245-2.416.245h-7.707V19.186h8.287c2.054.049 3.527.662 4.397 1.862Zm-9.301 1.176v3.823h4.155c.75 0 1.353-.147 1.812-.441.46-.294.7-.784.7-1.52 0-.808-.313-1.347-.917-1.592-.532-.171-1.208-.27-2.03-.27h-3.72Zm0 6.69v4.631h4.155c.75 0 1.329-.098 1.74-.319.749-.367 1.135-1.102 1.135-2.156 0-.907-.362-1.52-1.087-1.862-.41-.196-.966-.294-1.715-.294H27.47Zm23.169 6.076C49.576 36.34 47.957 37 45.783 37c-2.175 0-3.793-.661-4.856-2.01-1.063-1.347-1.595-2.94-1.595-4.826 0-1.863.532-3.455 1.595-4.828 1.063-1.347 2.681-2.033 4.856-2.033 2.174 0 3.793.686 4.856 2.034 1.063 1.347 1.594 2.964 1.594 4.827 0 1.886-.531 3.504-1.594 4.827Zm-2.658-1.837c.508-.686.773-1.69.773-2.965 0-1.274-.265-2.279-.773-2.965-.507-.686-1.256-1.053-2.223-1.053-.966 0-1.715.343-2.246 1.053-.532.686-.773 1.691-.773 2.965 0 1.274.265 2.279.773 2.965.531.686 1.256 1.054 2.246 1.054.967-.025 1.716-.368 2.223-1.054Zm8.601-.686c.072.588.217 1.03.459 1.274.41.441 1.184.662 2.295.662.652 0 1.184-.098 1.546-.294.387-.196.58-.49.58-.882 0-.368-.145-.662-.459-.858-.314-.196-1.474-.54-3.455-1.005-1.45-.367-2.464-.808-3.044-1.347-.58-.54-.894-1.3-.894-2.304 0-1.176.46-2.205 1.377-3.063.918-.857 2.223-1.274 3.89-1.274 1.594 0 2.875.319 3.865.956.991.637 1.57 1.74 1.716 3.308h-3.31c-.048-.441-.17-.784-.362-1.03-.363-.465-.99-.685-1.86-.685-.726 0-1.233.122-1.547.343-.314.22-.459.49-.459.808 0 .392.17.662.483.833.314.172 1.474.49 3.455.931 1.329.319 2.32.785 2.972 1.422.652.637.966 1.445.966 2.425 0 1.275-.459 2.304-1.401 3.112-.942.809-2.392 1.201-4.325 1.201-2.005 0-3.479-.416-4.42-1.274-.943-.858-1.426-1.936-1.426-3.259h3.358Zm9.929-13.207h3.262v9.36l4.18-4.852h4.107l-4.542 4.778 4.71 7.988h-4.034l-3.068-5.488-1.377 1.445v4.043h-3.262V19.26h.025Zm17.855 9.507c.628-.074 1.063-.172 1.329-.294.483-.196.724-.515.724-.956 0-.514-.193-.882-.555-1.078-.363-.196-.894-.294-1.62-.294-.796 0-1.352.196-1.69.588-.242.294-.387.686-.46 1.176h-3.188c.072-1.127.386-2.058.942-2.769.87-1.127 2.392-1.69 4.518-1.69 1.4 0 2.633.27 3.72.833 1.087.563 1.619 1.617 1.619 3.16v5.881c0 .417 0 .907.024 1.495.024.441.097.735.193.907.097.147.266.294.484.392v.49h-3.6a6.032 6.032 0 0 1-.218-.735 6.28 6.28 0 0 1-.096-.784 6.23 6.23 0 0 1-1.595 1.274c-.725.416-1.522.612-2.44.612-1.16 0-2.102-.343-2.85-1.004-.75-.662-1.136-1.593-1.136-2.818 0-1.568.604-2.72 1.812-3.43.652-.392 1.642-.662 2.923-.834l1.16-.122Zm2.03 1.544c-.218.122-.436.245-.653.318a6.864 6.864 0 0 1-.894.22l-.75.148c-.7.122-1.207.27-1.521.465-.532.319-.773.784-.773 1.421 0 .564.169.98.483 1.25.314.245.7.392 1.16.392.724 0 1.4-.22 2.005-.637.604-.416.918-1.2.942-2.328v-1.25Zm9.252 6.248h-3.31V19.186h3.31v17.373Zm6.064-14.359h-3.358v-3.087h3.358V22.2Zm-3.358 1.52h3.358v12.839h-3.358v-12.84Zm8.311 8.747c.072.588.217 1.03.459 1.274.411.441 1.184.662 2.295.662.652 0 1.184-.098 1.546-.294.387-.196.58-.49.58-.882 0-.368-.145-.662-.459-.858-.314-.196-1.474-.54-3.455-1.005-1.449-.367-2.464-.808-3.044-1.347-.58-.54-.894-1.3-.894-2.304 0-1.176.459-2.205 1.377-3.063.918-.857 2.223-1.274 3.89-1.274 1.595 0 2.875.319 3.866.956.99.637 1.57 1.74 1.715 3.308h-3.31c-.048-.441-.169-.784-.362-1.03-.363-.465-.991-.685-1.861-.685-.724 0-1.232.122-1.546.343-.314.22-.459.49-.459.808 0 .392.169.662.483.833.314.172 1.474.49 3.455.931 1.329.319 2.319.785 2.972 1.422.652.637.966 1.445.966 2.425 0 1.275-.459 2.304-1.401 3.112-.942.809-2.392 1.201-4.325 1.201-2.005 0-3.479-.416-4.421-1.274-.942-.858-1.425-1.936-1.425-3.259h3.358ZM6.137 3.896l.241 2.156a15.146 15.146 0 0 0-3.261.784l1.16 5.097H1.714L.097 5.905c1.498-.955 3.72-1.69 6.04-2.009Zm-4.108 9.287.701 2.548h11.838l.7-2.548H2.03Zm15.173-7.278-1.619 6.028h-2.56l1.159-5.072a15.148 15.148 0 0 0-3.262-.784l.242-2.156c2.32.294 4.518 1.029 6.04 1.984Zm-9.81-3.357h2.513V0H7.393v2.548Zm0 1.226v8.16h2.513v-8.16c-.41-.025-.845-.05-1.256-.05-.435 0-.845.025-1.256.05Z" fill="#141414"/></svg>