<svg xmlns="http://www.w3.org/2000/svg" width="39" height="74" viewBox="0 0 39 74" fill="none"><g clip-path="url(#clip0_114_469)"><path d="M19.3197 0C29.9897 0 38.4697 7.23999 38.4697 18.27V52.47H28.3097V18.69C28.3097 12.69 24.7997 9.11002 19.3097 9.11002C13.8197 9.11002 10.2497 12.69 10.2497 18.69V52.52H0.179688V18.32C0.179688 7.32001 8.6497 0.0499878 19.3197 0.0499878" fill="#FFEE02"></path><path d="M5 73.1895C4.07065 73.2456 3.1404 73.0955 2.27594 72.7497C1.41148 72.4039 0.63425 71.8711 0 71.1895L0.799988 70.3895C1.32843 70.9894 1.98695 71.4607 2.72522 71.7675C3.46349 72.0742 4.26203 72.2083 5.06 72.1595C7.43 72.1595 8.92999 71.0195 8.92999 69.0595C8.95156 68.6688 8.8886 68.278 8.74536 67.9139C8.60212 67.5497 8.38202 67.2208 8.10004 66.9495C7.48219 66.4553 6.72078 66.1746 5.92999 66.1495L4.17999 65.8695C3.2026 65.7628 2.27442 65.3853 1.5 64.7795C1.10319 64.4394 0.7896 64.0129 0.583313 63.5327C0.377025 63.0525 0.283522 62.5314 0.309998 62.0095C0.309998 59.4995 2.11004 57.8895 4.98004 57.8895C5.77412 57.8577 6.56648 57.9856 7.31024 58.2656C8.054 58.5456 8.734 58.9719 9.31 59.5195L8.57001 60.2595C8.08942 59.7899 7.51738 59.4242 6.88947 59.1851C6.26155 58.946 5.59117 58.8385 4.91998 58.8695C2.73998 58.8695 1.42999 60.0695 1.42999 61.9695C1.39815 62.3403 1.45192 62.7135 1.58716 63.0603C1.7224 63.407 1.93552 63.7181 2.21002 63.9695C2.86477 64.4661 3.63605 64.7863 4.45001 64.8995L6.08002 65.1495C7.05448 65.2014 7.9897 65.5504 8.76001 66.1495C9.18223 66.5056 9.51912 66.9519 9.74585 67.4555C9.97258 67.9592 10.0834 68.5073 10.07 69.0595C10.07 71.5895 8.07 73.2195 5 73.2195" fill="black"></path><path d="M14.4395 73.0593V58.0293H23.5494V59.0493H15.5795V64.9793H22.3694V65.9893H15.5795V72.0493H23.5494V73.0593H14.4395Z" fill="black"></path><path d="M37.3192 73.0605L36.0092 69.4105H29.0092L27.7092 73.0605H26.4492L31.9792 58.0605H32.9792L38.5092 73.0605H37.3192ZM32.5092 59.5504L29.3592 68.4005H35.6492L32.5092 59.5504Z" fill="black"></path></g><defs><clipPath id="clip0_114_469"><rect width="39" height="74" fill="white"></rect></clipPath></defs></svg>