<svg width="654" height="100" viewBox="0 0 654 100" fill="none" xmlns="http://www.w3.org/2000/svg">
<path d="M632.576 76.9213C625.79 76.9213 620.426 75.499 616.484 72.6546C612.542 69.7455 610.409 65.2849 610.086 59.2728H620.459C620.846 62.699 622.042 65.1556 624.046 66.6425C626.049 68.0647 628.957 68.7758 632.77 68.7758C636.066 68.7758 638.651 68.194 640.525 67.0303C642.464 65.8667 643.433 64.2505 643.433 62.1819C643.433 60.7596 643.143 59.6283 642.561 58.7879C641.979 57.9475 640.816 57.2041 639.071 56.5576C637.391 55.9112 634.774 55.297 631.219 54.7152C626.178 53.8748 622.204 52.7435 619.295 51.3213C616.387 49.899 614.352 48.2182 613.188 46.2788C612.025 44.2748 611.443 41.8505 611.443 39.0061C611.443 34.4162 613.253 30.796 616.872 28.1455C620.556 25.495 625.37 24.1697 631.316 24.1697C638.102 24.1697 643.369 25.6566 647.117 28.6303C650.866 31.6041 652.772 35.7738 652.837 41.1394H642.755C642.626 37.8425 641.527 35.5475 639.459 34.2546C637.456 32.9617 634.741 32.3152 631.316 32.3152C628.537 32.3152 626.243 32.8647 624.433 33.9637C622.688 35.0627 621.816 36.6142 621.816 38.6182C621.816 40.0404 622.171 41.1718 622.882 42.0122C623.593 42.8526 624.821 43.596 626.566 44.2425C628.376 44.8243 631.025 45.4061 634.515 45.9879C639.491 46.8283 643.369 47.9273 646.148 49.2849C648.991 50.5778 650.995 52.2263 652.158 54.2303C653.386 56.1697 654 58.594 654 61.5031C654 66.3516 651.997 70.1334 647.99 72.8485C644.047 75.5637 638.91 76.9213 632.576 76.9213Z" fill="#112D4E"/>
<path d="M567.552 99.7091C566.26 99.6444 564.87 99.4828 563.384 99.2242C561.897 98.9979 560.411 98.6101 558.925 98.0606L561.736 90.206C562.835 90.4969 563.852 90.6909 564.789 90.7878C565.727 90.9171 566.648 90.9818 567.552 90.9818C569.911 90.9818 571.818 90.206 573.272 88.6545C574.758 87.1353 576.067 84.9697 577.198 82.1575C578.329 79.3454 579.541 76.0161 580.833 72.1697L595.422 25.6242H607.588L589.848 74.6909C588.33 78.5697 586.908 82.0444 585.583 85.1151C584.291 88.2182 582.853 90.8525 581.269 93.0181C579.686 95.1838 577.812 96.8323 575.647 97.9636C573.482 99.1272 570.784 99.7091 567.552 99.7091ZM575.065 74.5939L556.986 25.6242H569.588L577.828 52.3394C578.668 54.8606 579.023 57.5596 578.894 60.4363C578.797 63.2808 578.393 65.9798 577.682 68.5333C576.972 71.0545 576.099 73.0747 575.065 74.5939Z" fill="#112D4E"/>
<path d="M534.921 76.9213C528.135 76.9213 522.771 75.499 518.829 72.6546C514.886 69.7455 512.754 65.2849 512.431 59.2728H522.803C523.191 62.699 524.387 65.1556 526.39 66.6425C528.393 68.0647 531.302 68.7758 535.115 68.7758C538.411 68.7758 540.996 68.194 542.87 67.0303C544.809 65.8667 545.778 64.2505 545.778 62.1819C545.778 60.7596 545.487 59.6283 544.906 58.7879C544.324 57.9475 543.161 57.2041 541.416 56.5576C539.735 55.9112 537.118 55.297 533.564 54.7152C528.523 53.8748 524.548 52.7435 521.64 51.3213C518.732 49.899 516.696 48.2182 515.533 46.2788C514.369 44.2748 513.788 41.8505 513.788 39.0061C513.788 34.4162 515.597 30.796 519.216 28.1455C522.9 25.495 527.715 24.1697 533.66 24.1697C540.446 24.1697 545.713 25.6566 549.462 28.6303C553.21 31.6041 555.116 35.7738 555.181 41.1394H545.099C544.97 37.8425 543.871 35.5475 541.803 34.2546C539.8 32.9617 537.086 32.3152 533.66 32.3152C530.882 32.3152 528.587 32.8647 526.778 33.9637C525.033 35.0627 524.16 36.6142 524.16 38.6182C524.16 40.0404 524.516 41.1718 525.227 42.0122C525.938 42.8526 527.166 43.596 528.91 44.2425C530.72 44.8243 533.37 45.4061 536.86 45.9879C541.836 46.8283 545.713 47.9273 548.492 49.2849C551.336 50.5778 553.339 52.2263 554.503 54.2303C555.73 56.1697 556.344 58.594 556.344 61.5031C556.344 66.3516 554.341 70.1334 550.334 72.8485C546.392 75.5637 541.254 76.9213 534.921 76.9213Z" fill="#112D4E"/>
<path d="M463.543 25.3334H473.721V32.4122C475.531 29.8909 477.793 27.8869 480.507 26.4C483.222 24.9132 486.324 24.1697 489.813 24.1697C493.756 24.1697 497.052 25.0101 499.701 26.6909C502.416 28.3718 504.419 30.6667 505.712 33.5758C507.069 36.4849 507.747 39.7819 507.747 43.4667V75.7576H497.278V44.5334C497.278 41.1718 496.405 38.4889 494.66 36.4849C492.915 34.4808 490.298 33.4788 486.808 33.4788C485.063 33.4788 483.222 33.899 481.283 34.7394C479.344 35.5152 477.664 36.9697 476.242 39.1031C474.82 41.2364 474.109 44.1455 474.109 47.8303V75.7576H463.543V25.3334Z" fill="#112D4E"/>
<path d="M430.748 76.9213C425.126 76.9213 420.667 75.6283 417.371 73.0425C414.075 70.392 412.427 66.6748 412.427 61.891C412.427 58.9172 413.105 56.4283 414.462 54.4243C415.884 52.3556 417.985 50.6748 420.763 49.3819C423.542 48.0243 427.032 46.9576 431.233 46.1819L446.356 43.3697V40.1697C446.356 37.5839 445.548 35.7091 443.932 34.5455C442.316 33.3172 439.796 32.7031 436.371 32.7031C433.139 32.7031 430.457 33.3819 428.325 34.7394C426.257 36.0324 425.126 38.1657 424.932 41.1394H414.462C414.592 35.4505 416.692 31.2162 420.763 28.4364C424.9 25.592 430.102 24.1697 436.371 24.1697C443.092 24.1697 448.133 25.495 451.493 28.1455C454.919 30.7313 456.631 34.3516 456.631 39.0061V75.7576H446.743V69.7455C444.675 72.3314 442.316 74.1738 439.667 75.2728C437.017 76.3718 434.044 76.9213 430.748 76.9213ZM432.493 68.5819C434.884 68.5819 437.114 68.1617 439.182 67.3213C441.315 66.4162 443.027 65.0263 444.32 63.1516C445.677 61.2122 446.356 58.8526 446.356 56.0728V51.1273L433.075 53.8425C429.65 54.5536 427.161 55.4263 425.61 56.4606C424.059 57.495 423.284 59.1758 423.284 61.5031C423.284 63.7657 424.027 65.5111 425.513 66.7394C427.065 67.9677 429.391 68.5819 432.493 68.5819Z" fill="#112D4E"/>
<path d="M333.321 25.3334H343.5V32.5091C345.051 29.9233 347.055 27.8869 349.51 26.4C352.031 24.9132 355.036 24.1697 358.526 24.1697C362.145 24.1697 365.215 25.0425 367.735 26.7879C370.255 28.4687 372.194 30.796 373.551 33.7697C375.296 30.8606 377.558 28.5334 380.337 26.7879C383.116 25.0425 386.347 24.1697 390.031 24.1697C393.586 24.1697 396.623 25.0425 399.144 26.7879C401.729 28.4687 403.667 30.7637 404.96 33.6728C406.317 36.5819 406.996 39.8465 406.996 43.4667V75.7576H396.429V44.5334C396.429 41.2364 395.621 38.5859 394.006 36.5819C392.39 34.5132 390.096 33.4788 387.123 33.4788C384.215 33.4788 381.533 34.5455 379.077 36.6788C376.621 38.7475 375.393 42.4647 375.393 47.8303V75.7576H364.827V44.5334C364.827 41.2364 364.019 38.5859 362.403 36.5819C360.852 34.5132 358.59 33.4788 355.618 33.4788C352.709 33.4788 350.027 34.5455 347.572 36.6788C345.116 38.7475 343.888 42.4647 343.888 47.8303V75.7576H333.321V25.3334Z" fill="#112D4E"/>
<path d="M303.048 76.9213C298.137 76.9213 293.807 75.7899 290.058 73.5273C286.375 71.2647 283.531 68.1293 281.528 64.1213C279.589 60.1132 278.619 55.5879 278.619 50.5455C278.619 45.5031 279.589 40.9778 281.528 36.9697C283.531 32.9617 286.375 29.8263 290.058 27.5637C293.807 25.3011 298.137 24.1697 303.048 24.1697C307.96 24.1697 312.257 25.3011 315.941 27.5637C319.625 29.8263 322.436 32.994 324.375 37.0667C326.378 41.1394 327.38 45.8263 327.38 51.1273V54.0364H289.38C289.703 56.8809 290.446 59.3697 291.609 61.5031C292.773 63.6364 294.291 65.2849 296.165 66.4485C298.104 67.6122 300.398 68.194 303.048 68.194C306.086 68.194 308.703 67.5152 310.9 66.1576C313.098 64.8 314.746 62.8606 315.844 60.3394H326.411C324.73 65.4465 321.822 69.4869 317.686 72.4606C313.615 75.4344 308.735 76.9213 303.048 76.9213ZM316.426 45.794C315.78 41.8505 314.293 38.7152 311.967 36.3879C309.705 34.0606 306.732 32.897 303.048 32.897C299.3 32.897 296.262 34.0606 293.936 36.3879C291.674 38.7152 290.22 41.8505 289.574 45.794H316.426Z" fill="#112D4E"/>
<path d="M254.761 76.9213C247.975 76.9213 242.611 75.499 238.669 72.6546C234.727 69.7455 232.594 65.2849 232.271 59.2728H242.643C243.031 62.699 244.227 65.1556 246.23 66.6425C248.234 68.0647 251.142 68.7758 254.955 68.7758C258.251 68.7758 260.836 68.194 262.71 67.0303C264.649 65.8667 265.618 64.2505 265.618 62.1819C265.618 60.7596 265.327 59.6283 264.746 58.7879C264.164 57.9475 263.001 57.2041 261.256 56.5576C259.575 55.9112 256.958 55.297 253.404 54.7152C248.363 53.8748 244.388 52.7435 241.48 51.3213C238.572 49.899 236.536 48.2182 235.373 46.2788C234.21 44.2748 233.628 41.8505 233.628 39.0061C233.628 34.4162 235.437 30.796 239.057 28.1455C242.74 25.495 247.555 24.1697 253.501 24.1697C260.286 24.1697 265.553 25.6566 269.302 28.6303C273.05 31.6041 274.957 35.7738 275.021 41.1394H264.939C264.81 37.8425 263.712 35.5475 261.644 34.2546C259.64 32.9617 256.926 32.3152 253.501 32.3152C250.722 32.3152 248.427 32.8647 246.618 33.9637C244.873 35.0627 244 36.6142 244 38.6182C244 40.0404 244.356 41.1718 245.067 42.0122C245.778 42.8526 247.006 43.596 248.751 44.2425C250.56 44.8243 253.21 45.4061 256.7 45.9879C261.676 46.8283 265.553 47.9273 268.332 49.2849C271.176 50.5778 273.179 52.2263 274.343 54.2303C275.571 56.1697 276.184 58.594 276.184 61.5031C276.184 66.3516 274.181 70.1334 270.174 72.8485C266.232 75.5637 261.094 76.9213 254.761 76.9213Z" fill="#112D4E"/>
<path d="M63.6168 59.8648C57.0303 59.8648 51.4129 64.2734 46.824 68.9996C41.8696 74.1023 34.9371 77.2727 27.2643 77.2727C12.2067 77.2727 0 65.0623 0 50C0 34.9377 12.2067 22.7273 27.2643 22.7273C34.133 22.7273 40.4085 25.2681 45.2027 29.4613C50.5019 34.0963 56.5774 38.6527 63.6168 38.6527C70.6561 38.6527 76.7316 34.0963 82.0309 29.4613C86.8251 25.2681 93.1005 22.7273 99.9692 22.7273C115.027 22.7273 127.234 34.9377 127.234 50C127.234 65.0623 115.027 77.2727 99.9692 77.2727C92.2964 77.2727 85.3639 74.1023 80.4095 68.9996C75.8206 64.2734 70.2032 59.8648 63.6168 59.8648Z" fill="#2CBFF7"/>
<path d="M136.322 59.8648C129.735 59.8648 124.118 64.2734 119.529 68.9996C114.574 74.1023 107.642 77.2727 99.9692 77.2727C84.9115 77.2727 72.7049 65.0623 72.7049 50C72.7049 34.9377 84.9115 22.7273 99.9692 22.7273C106.838 22.7273 113.113 25.2681 117.908 29.4613C123.207 34.0963 129.282 38.6527 136.322 38.6527C143.361 38.6527 149.436 34.0963 154.736 29.4613C159.53 25.2681 165.805 22.7273 172.674 22.7273C187.732 22.7273 199.938 34.9377 199.938 50C199.938 65.0623 187.732 77.2727 172.674 77.2727C165.001 77.2727 158.069 74.1023 153.114 68.9996C148.525 64.2734 142.908 59.8648 136.322 59.8648Z" fill="#327FDD"/>
<path d="M127.234 50C127.234 65.0623 115.027 77.2727 99.9692 77.2727C84.9115 77.2727 72.7049 65.0623 72.7049 50C72.7049 34.9377 84.9115 22.7273 99.9692 22.7273C115.027 22.7273 127.234 34.9377 127.234 50Z" fill="#095FD6"/>
</svg>
